Coordinates
version=1
nRows=10
nColumns=33
inDegrees=yes

Units are S.I. units (second, meters, Newtons, ...)
Angles are in degrees.

endheader
time	ground_thorax_rot_x	ground_thorax_rot_y	ground_thorax_rot_z	ground_thorax_tx	ground_thorax_ty	ground_thorax_tz	clav_prot_r	clav_elev_r	scapula_abduction_r	scapula_elevation_r	scapula_upward_rot_r	scapula_winging_r	shoulder_elv_r	plane_of_elev_r	axial_rot_r	elbow_flexion_r	pro_sup_r	wrist_flex_r	wrist_dev_r	clav_prot_l	clav_elev_l	scapula_abduction_l	scapula_elevation_l	scapula_upward_rot_l	scapula_winging_l	shoulder_elv_l	plane_of_elev_l	axial_rot_l	elbow_flexion_l	pro_sup_l	wrist_flex_l	wrist_dev_l
      9.73000000	     39.72675248	      0.62271574	      1.07546819	   -154.53678614	    897.65070283	     -1.01194353	     -4.60639316	     39.15265959	     45.00000000	     45.00000000	     44.26723287	   1323.52617129	  -1370.59186482	     19.45408175	   -179.99999979	   1086.41399594	    -61.51419909	     21.79956322	     12.13934420	     11.94414076	    -45.00000000	    -45.00000000	     45.00000000	    -24.93964774	  -1343.12221063	  -1361.52788035	     19.63117964	    -46.80314389	     10.69068965	     23.44469757	     10.11117115	    -23.26267464
      9.74000000	     39.76363477	      0.51576393	      0.89004118	   -150.61928573	    896.72541241	     -0.80822669	     -3.23817663	     39.38372018	     45.00000000	     45.00000000	     45.00000000	   1323.76148039	  -1370.68948159	     19.30848279	   -179.99999979	   1086.23096932	    -63.79240632	     21.72421459	     12.36794882	     12.27108992	    -45.00000000	    -45.00000000	     45.00000000	    -24.76992504	  -1343.01376109	  -1361.86304605	     20.39512897	    -46.76683784	     10.37176674	     20.63523021	     10.42695450	    -23.05173353
      9.75000000	     39.68711603	      0.71353702	      0.96275033	   -146.62850906	    895.54996717	     -0.58111103	     -4.63831911	     39.03865683	     45.00000000	     45.00000000	     45.00000000	   1323.67974417	  -1371.10468878	     19.55326287	   -179.99999979	   1086.18183254	    -65.99302698	     21.44416624	     12.66609437	     11.56062860	    -45.00000000	    -45.00000000	     45.00000000	    -23.44088171	  -1343.79022117	  -1361.62488685	     19.65566065	    -46.42429057	     10.32389598	     17.86943234	     11.02871013	    -22.94275089
      9.76000000	     39.62856855	      0.77068528	      0.96467659	   -142.56900260	    894.11845875	     -0.32639916	     -4.82102746	     39.11813376	     45.00000000	     45.00000000	     45.00000000	   1323.79133011	  -1371.57890517	     19.51238098	   -179.99999979	   1086.09182390	    -68.45356184	     21.27970956	     12.89495164	     11.33358147	    -45.00000000	    -45.00000000	     45.00000000	    -22.95083154	  -1344.24550645	  -1361.65176334	     19.64922127	    -46.35423242	     10.04643189	     15.48128228	     11.56856961	    -22.74907116
      9.77000000	     39.57499992	      0.85180860	      0.95557072	   -138.44652955	    892.42505431	     -0.04342772	     -5.20685867	     39.10112802	     45.00000000	     45.00000000	     45.00000000	   1323.67814769	  -1372.04689739	     19.71922656	   -179.99999979	   1086.08427978	    -71.13650344	     21.19864884	     13.13054796	     10.98957209	    -45.00000000	    -45.00000000	     45.00000000	    -22.00817384	  -1344.51946455	  -1361.92456013	     19.75365555	    -46.18970361	      9.71052202	     13.23802121	     11.96653571	    -22.47174071
      9.78000000	     39.53586861	      0.97756597	      1.00798018	   -134.27152558	    890.46573834	      0.26558723	     -5.18835564	     39.14655895	     45.00000000	     45.00000000	     45.00000000	   1323.75064028	  -1372.44239241	     19.64065859	   -179.99999979	   1085.99963137	    -73.91096574	     20.91172114	     13.39450244	     10.80552223	    -45.00000000	    -45.00000000	     45.00000000	    -21.38945384	  -1344.92219447	  -1362.06375231	     19.72433460	    -46.12690020	      9.60371167	     11.32338463	     12.34931646	    -22.26349116
      9.79000000	     39.55043448	      0.97733464	      0.92471169	   -130.05152712	    888.23846150	      0.59592903	     -5.54744238	     39.16166047	     45.00000000	     45.00000000	     45.00000000	   1323.70252695	  -1372.95018558	     19.82103524	   -179.99999979	   1086.03528640	    -76.88478063	     20.72110398	     13.65459148	     10.52907992	    -45.00000000	    -45.00000000	     45.00000000	    -20.60339388	  -1345.26107872	  -1362.45884221	     19.83490381	    -46.01642403	      9.40094933	      9.59367570	     12.71367575	    -22.01522398
      9.80000000	     39.53617612	      1.17291326	      1.03431721	   -125.79764649	    885.74586159	      0.94169115	     -5.51493646	     39.19055045	     45.00000000	     45.00000000	     45.00000000	   1323.75901491	  -1373.30161515	     19.77135966	   -179.99999979	   1086.07626974	    -79.79751582	     20.31686962	     13.93350041	     10.39079201	    -45.00000000	    -45.00000000	     45.00000000	    -20.20240322	  -1345.75065488	  -1362.68394141	     19.79626794	    -45.74273405	      9.31227007	      8.17884148	     13.00712273	    -21.80083200
      9.81000000	     39.53302255	      1.29122767	      1.08005066	   -121.51690829	    882.99351184	      1.29585251	     -5.60885969	     39.24024735	     45.00000000	     45.00000000	     45.00000000	   1323.72419397	  -1373.74782123	     19.72005540	   -179.99999979	   1086.08400364	    -82.76677371	     19.95884858	     14.15804218	     10.20916546	    -45.00000000	    -45.00000000	     45.00000000	    -19.74746559	  -1346.19977096	  -1363.00747001	     19.83730956	    -45.45373370	      9.17718567	      7.01708413	     13.30979597	    -21.58200580
      9.82000000	     39.50005092	      1.47429611	      1.25189256	   -117.21423488	    879.98903621	      1.65190848	     -5.38711247	     39.36423353	     45.00000000	     45.00000000	     45.00000000	   1323.78974833	  -1374.17113913	     19.45536740	   -179.99999979	   1086.03577608	    -85.56135158	     19.50980410	     14.32775381	     10.10490568	    -45.00000000	    -45.00000000	     45.00000000	    -19.68166673	  -1346.70414563	  -1363.22950328	     19.79694872	    -45.24210585	      9.14281068	      6.13947779	     13.55701875	    -21.40449753
